# xmcd
#
# Track frame offsets: 
#        150
#        15449
#        31013
#        48283
#        65339
#        82646
#        99995
#        113229
#        126006
#        139233
#        152842
#        167335
#        184558
#        202005
#        218304
#        233092
#        253526
#        271244
#        288541
#        306103
#        323639
#
# Disc length: 4550 seconds
#
# Revision: 0
# Processed by: cddbd v1.5.2PL0 Copyright (c) Steve Scherf et al.
# Submitted via: ExactAudioCopy v1.0b1
#
DISCID=0711c415
DTITLE=George Harrison  - Art Of Dying - Disc 2
DYEAR=1900
DGENRE=
TTITLE0=Art Of Dying
TTITLE1=Art Of Dying
TTITLE2=Art Of Dying
TTITLE3=Art Of Dying
TTITLE4=Art Of Dying
TTITLE5=Art Of Dying
TTITLE6=Awaiting On You All
TTITLE7=Awaiting On You All
TTITLE8=Awaiting On You All
TTITLE9=Awaiting On You All
TTITLE10=Everybody Nobody
TTITLE11=Ballad Of Sir Frankie Crisp (Let It Roll)
TTITLE12=Beautiful Girl
TTITLE13=Behind That Locked Door
TTITLE14=Behind That Locked Door
TTITLE15=Beware Of Darkness
TTITLE16=Beware Of Darkness
TTITLE17=Beware Of Darkness
TTITLE18=Beware Of Darkness
TTITLE19=Beware Of Darkness
TTITLE20=Beware Of Darkness
EXTD=
EXTT0=
EXTT1=
EXTT2=
EXTT3=
EXTT4=
EXTT5=
EXTT6=
EXTT7=
EXTT8=
EXTT9=
EXTT10=
EXTT11=
EXTT12=
EXTT13=
EXTT14=
EXTT15=
EXTT16=
EXTT17=
EXTT18=
EXTT19=
EXTT20=
PLAYORDER=
